<?xml version="1.0" encoding="UTF-8"?>
<svg id="Layer_2" data-name="Layer 2" xmlns="http://www.w3.org/2000/svg" viewBox="0 0 242.19 473.17">
  <g id="Layer_1-2" data-name="Layer 1">
    <path d="M.97,131.24L119.49,1.24c1.52-1.66,4.17-1.65,5.67.03l116.08,130c2.14,2.4.41,6.17-2.85,6.17h-63.57c-1.62,0-3.07,1.02-3.59,2.53l-28.87,83.8c-.83,2.41,1,4.91,3.59,4.91h74.23c2.99,0,4.8,3.25,3.19,5.72l-154.7,237.05c-2.29,3.51-7.84,1.22-6.88-2.84l37.22-158.28c.55-2.33-1.25-4.55-3.69-4.55h-53.31c-2.44,0-4.25-2.24-3.69-4.57l38.39-159.19c.56-2.33-1.24-4.57-3.69-4.57H3.79c-3.27,0-5-3.8-2.82-6.19Z"/>
  </g>
</svg>