<?xml version="1.0" encoding="UTF-8"?>
<svg id="Layer_1" data-name="Layer 1" xmlns="http://www.w3.org/2000/svg" viewBox="0 0 936.55 1832.54">
  <defs>
    <style>
      .cls-1 {
        fill: #474849;
      }

      .cls-2 {
        fill: #222224;
      }

      .cls-3 {
        fill: #232221;
      }

      .cls-4 {
        fill: #213664;
      }

      .cls-5 {
        fill: #0e1735;
      }

      .cls-6 {
        fill: #343231;
      }

      .cls-7 {
        fill: #171717;
      }

      .cls-8 {
        fill: #171616;
      }

      .cls-9 {
        fill: #0e0f1b;
      }

      .cls-10 {
        fill: #38393b;
      }

      .cls-11 {
        fill: #313030;
      }

      .cls-12 {
        fill: #121111;
      }

      .cls-13 {
        fill: #1d1c1b;
      }

      .cls-14 {
        fill: #444446;
      }

      .cls-15 {
        fill: #181717;
      }

      .cls-16 {
        fill: #5c5d5e;
      }

      .cls-17 {
        fill: #38393a;
      }

      .cls-18 {
        fill: #121211;
      }

      .cls-19 {
        fill: #080d25;
      }

      .cls-20 {
        fill: #04060f;
      }

      .cls-21 {
        fill: #1f1e1d;
      }

      .cls-22 {
        fill: #04060b;
      }

      .cls-23 {
        fill: #2a2928;
      }

      .cls-24 {
        fill: #10100f;
      }

      .cls-25 {
        fill: #2a2a2a;
      }

      .cls-26 {
        fill: #151414;
      }

      .cls-27 {
        fill: #232220;
      }

      .cls-28 {
        fill: #30337e;
      }

      .cls-29 {
        fill: #202020;
      }

      .cls-30 {
        fill: #272625;
      }

      .cls-31 {
        fill: #202022;
      }

      .cls-32 {
        fill: #313131;
      }

      .cls-33 {
        fill: #0f0f0e;
      }

      .cls-34 {
        fill: #161515;
      }

      .cls-35 {
        fill: #111010;
      }

      .cls-36 {
        fill: #1e1d1d;
      }

      .cls-37 {
        fill: #323131;
      }

      .cls-38 {
        fill: #181818;
      }

      .cls-39 {
        fill: #222;
      }

      .cls-40 {
        fill: #11100f;
      }
    </style>
  </defs>
  <path d="M210.29.14c2.33,0,4.66,0,6.99,0,6.33,0,12.66,0,19,0,6.15,0,12.3,0,18.45,0,14.11,0,28.23-.01,42.34-.01,10.91,0,21.82,0,32.73,0,3.15,0,6.3,0,9.46,0q1.18,0,2.38,0c22.02,0,44.04-.01,66.07,0,.83,0,1.66,0,2.51,0,4.2,0,8.4,0,12.6,0,.83,0,1.67,0,2.53,0,1.69,0,3.37,0,5.06,0,26.21,0,52.41,0,78.62-.02,29.52-.02,59.03-.02,88.55-.02,3.16,0,6.31,0,9.47,0,.78,0,1.55,0,2.35,0,12.42,0,24.85,0,37.27-.01,12.52,0,25.04,0,37.56,0,6.76,0,13.53,0,20.29,0q46.96-.06,68.32,1.16,1.06.06,2.14.12c44.61,2.63,88.01,14.18,118.83,48.67,22.85,26.85,32.42,58.02,36.11,92.56q.19,1.73.37,3.49c2.15,21.5,2.16,43.01,2.17,64.59,0,4.49.01,8.97.02,13.46.01,7.75.03,15.51.04,23.26.01,11.22.04,22.44.06,33.65.04,18.22.07,36.43.1,54.65,0,1.09,0,2.17,0,3.3.03,15.46.05,30.93.07,46.39,0,1.09,0,2.18,0,3.31,0,1.09,0,2.18,0,3.3.03,18.17.06,36.34.1,54.5.02,11.19.04,22.39.05,33.58,0,7.66.02,15.32.04,22.98.01,4.42.02,8.84.02,13.25,0,4.04,0,8.09.02,12.13,0,1.46,0,2.93,0,4.39,0,1.99,0,3.98.02,5.97,0,1.1,0,2.21,0,3.35.29,3.61,1.18,6.76,2.25,10.21,1.73,10.11,1.15,20.69,1.15,30.92,0,2.01,0,4.01.01,6.02,0,5.43.01,10.85.01,16.28,0,3.4,0,6.79,0,10.19,0,11.87.01,23.74.01,35.61,0,11.03,0,22.07.03,33.1.01,9.5.02,19,.02,28.5,0,5.66,0,11.32.01,16.98,0,5.33,0,10.66,0,15.99,0,1.94,0,3.89,0,5.83q.07,25.6-3.25,35.58c-.09,1.96-.13,3.93-.13,5.9,0,1.24,0,2.48,0,3.77,0,1.39,0,2.78,0,4.17,0,1.47,0,2.95,0,4.42,0,4.08,0,8.16,0,12.24,0,4.43,0,8.85-.01,13.28,0,7.77-.01,15.54-.01,23.31,0,11.55-.01,23.11-.02,34.66-.02,19.44-.03,38.88-.04,58.32-.01,27.8-.04,55.6-.06,83.4,0,11.16-.02,22.31-.03,33.47,0,1.24,0,2.48,0,3.76-.03,29.53-.05,59.06-.07,88.58,0,1.29,0,2.58,0,3.92-.02,30.12-.04,60.24-.06,90.36,0,1.29,0,2.59,0,3.92,0,6.52,0,13.04-.01,19.56,0,1.29,0,2.58,0,3.9,0,2.6,0,5.2,0,7.8-.03,43.04-.06,86.07-.1,129.1,0,6.09-.01,12.17-.02,18.26q0,1.8,0,3.63c-.02,19.23-.03,38.46-.03,57.7,0,19.36-.02,38.73-.04,58.09-.01,11.48-.02,22.97-.02,34.45,0,7.7,0,15.39-.02,23.09,0,4.37-.01,8.74,0,13.11q.11,108.54-33.28,151.84c-.68.9-1.36,1.79-2.05,2.71-9.78,12.49-21.38,22.16-34.95,30.29-.65.39-1.31.79-1.98,1.19-21.71,12.79-45.53,17.83-70.33,20.5-1.11.12-2.22.24-3.37.36-19.39,1.9-38.86,2.1-58.33,2.08-2.33,0-4.66,0-6.99,0-6.33,0-12.66,0-19,0-6.15,0-12.3,0-18.45,0-14.11,0-28.23.01-42.34.01-10.91,0-21.82,0-32.73,0-3.15,0-6.3,0-9.46,0q-1.18,0-2.38,0c-22.02,0-44.04.01-66.07,0h-2.51c-4.2,0-8.4,0-12.6,0h-2.53c-1.69,0-3.37,0-5.06,0-26.21,0-52.41,0-78.62.02-29.52.02-59.03.02-88.55.02-3.16,0-6.31,0-9.47,0h-2.35c-12.42,0-24.85,0-37.27.01-12.52,0-25.04,0-37.56,0-6.76,0-13.53,0-20.29,0q-46.96.06-68.32-1.16c-.71-.04-1.41-.08-2.14-.12-44.61-2.63-88.01-14.18-118.83-48.67-22.85-26.85-32.42-58.02-36.11-92.56-.12-1.15-.25-2.31-.37-3.49-2.08-20.79-2.15-41.58-2.15-62.45,0-4.23,0-8.45-.01-12.68,0-7.39-.01-14.78-.01-22.17,0-10.99-.01-21.98-.02-32.97-.02-18.49-.03-36.99-.04-55.48-.01-26.41-.04-52.83-.06-79.24,0-10.61-.02-21.21-.03-31.82,0-1.18,0-2.36,0-3.57-.03-28.01-.05-56.03-.07-84.04,0-1.23,0-2.45,0-3.71-.02-28.61-.04-57.21-.06-85.82,0-1.23,0-2.46,0-3.73,0-6.21,0-12.42-.01-18.64,0-1.23,0-2.46,0-3.72,0-2.48,0-4.96,0-7.44-.03-40.92-.06-81.84-.1-122.76,0-5.77-.01-11.55-.02-17.32,0-1.14,0-2.27,0-3.44-.02-18.3-.03-36.61-.03-54.91,0-18.38-.02-36.75-.04-55.13-.01-10.92-.02-21.85-.02-32.77,0-7.29,0-14.58-.02-21.87,0-4.16-.01-8.31,0-12.47,0-3.78,0-7.56-.01-11.34,0-2,0-4.01,0-6.01-.03-5.99-.24-11.09-2.27-16.74-1.21-7.82-1.14-15.75-1.13-23.64,0-1.21,0-2.43,0-3.68,0-3.29,0-6.59,0-9.88,0-3.47,0-6.93,0-10.4,0-5.82,0-11.64,0-17.46,0-6.7,0-13.4,0-20.11,0-5.78,0-11.57,0-17.35,0-3.44,0-6.88,0-10.32,0-3.84,0-7.68,0-11.52,0-1.12,0-2.24,0-3.4.02-5.98.28-11.84.91-17.79.38-4.15.37-8.29.35-12.46q0-1.22.01-2.46c0-4.23-.19-8.37-.64-12.57-.58-6.19-.65-12.33-.65-18.55,0-1.21,0-2.41-.01-3.66,0-3.28-.01-6.55-.01-9.83,0-2.06,0-4.11,0-6.17,0-7.2-.01-14.4-.01-21.6,0-6.67,0-13.34-.03-20.01-.01-5.76-.02-11.53-.02-17.29,0-3.43,0-6.85-.01-10.28q-.08-32.61,3.24-42.58c.26-4.25.23-8.5.25-12.75q.03-1.75.06-3.54c.03-6.52-.64-10.73-3.31-16.71C.44,458.46-.02,448.74.01,438.77c0-1.32,0-2.64,0-4,0-2.77,0-5.53.01-8.3.01-3.5,0-7,0-10.5,0-3.4,0-6.8,0-10.21,0-1.23,0-2.46-.01-3.73q.11-21.18,3.8-28.99c1.69-3.86,1.9-7.51,1.86-11.69q0-1.15.02-2.32c.01-2.55,0-5.11,0-7.66,0-1.84.01-3.68.02-5.52.02-3.96.02-7.92.02-11.88,0-6.29.02-12.59.04-18.88.04-12.27.06-24.53.08-36.8.02-15.52.06-31.04.11-46.55.02-5.21.03-10.43.03-15.64q.04-115.68,33.3-158.83c.68-.9,1.36-1.79,2.05-2.71,9.78-12.49,21.38-22.16,34.95-30.29.65-.39,1.31-.79,1.98-1.19C117.7-.16,165.87.1,210.29.14ZM148.28,43.27q-1.82.4-3.67.8c-22.21,5.32-41.56,16.92-58.33,32.2-.72.64-1.45,1.28-2.2,1.95-24.81,23.2-36.18,57.06-38.8,90.05-.09,1.07-.18,2.14-.27,3.25-.76,10.08-.85,20.09-.79,30.19,0,1.62,0,3.24.01,4.85.01,3.9.03,7.81.05,11.71h6v12h-6v1372h6v12h-6c-.57,50.55,2.37,98.91,38,138,.64.72,1.28,1.45,1.95,2.2,23.2,24.81,57.07,36.18,90.05,38.8,1.08.09,2.17.18,3.28.27,9.74.73,19.4.85,29.16.79,1.52,0,3.04,0,4.56-.01,3.67-.01,7.33-.03,11-.05v-5c-.59-.02-1.17-.03-1.77-.05-6.23-.18-12.46-.37-18.7-.59-2.31-.08-4.62-.15-6.93-.21-40.42-1.13-79.7-9.72-108.77-40.09-19.76-22.33-34.36-51.68-33.83-82.07.13.64.25,1.29.38,1.95,7,35.6,19.55,69.4,50.62,90.99q1.11.77,2.25,1.57c27.1,18.53,57.14,23.81,89.52,25.05q1.63.06,3.29.13c10.87.39,21.72.46,32.59.44,2.16,0,4.31,0,6.47,0,5.85,0,11.69,0,17.54,0,6.34,0,12.67,0,19.01,0,11.67,0,23.34,0,35.01,0,10.78,0,21.57,0,32.35,0q1.08,0,2.18,0c2.92,0,5.83,0,8.75,0,27.3,0,54.6,0,81.9,0,24.2,0,48.4,0,72.6,0,27.25,0,54.51,0,81.76,0,2.91,0,5.82,0,8.73,0q1.07,0,2.17,0c10.77,0,21.54,0,32.31,0,12.26,0,24.52,0,36.78,0,6.25,0,12.49,0,18.74,0,5.73,0,11.47,0,17.2,0,2.06,0,4.11,0,6.17,0,19.32.02,38.83-.06,58.04-2.38q1.6-.19,3.23-.38c12.92-1.65,25.1-5.19,37.39-9.37-1.7,3.4-5.32,3.81-8.76,5.01-5.38,1.65-10.83,2.68-16.36,3.68-1.12.21-2.23.42-3.38.64-9.56,1.78-18.98,2.8-28.69,3.22-.96.04-1.91.08-2.9.13-10.25.42-20.5.47-30.76.48-2.11,0-4.21,0-6.32.02-5.72.01-11.44.02-17.16.03-6.19,0-12.39.02-18.58.03-10.71.02-21.42.04-32.12.06-11.22.02-22.44.03-33.66.06-.7,0-1.4,0-2.12,0-3.56,0-7.11.01-10.67.02-25.12.05-50.24.09-75.37.13-24.39.04-48.78.08-73.18.12-.75,0-1.51,0-2.28,0-7.56.01-15.13.03-22.69.04-15.41.03-30.81.06-46.22.08-.71,0-1.42,0-2.15,0-47.21.08-94.43.16-141.64.24v6c48.76.03,97.52.07,146.28.08q1.08,0,2.19,0c15.71,0,31.42.01,47.13.02,7.71,0,15.41,0,23.12,0,.77,0,1.53,0,2.32,0,24.81,0,49.62.02,74.43.04,25.52.02,51.03.03,76.55.04,3.61,0,7.22,0,10.83,0,.71,0,1.42,0,2.15,0,11.4,0,22.8.01,34.2.02,11.48.01,22.97.02,34.45.01,6.21,0,12.42,0,18.64.01,5.7,0,11.41.01,17.11,0,2.05,0,4.1,0,6.14,0,10.76.03,21.43-.27,32.16-1.15.96-.08,1.93-.16,2.92-.24,33.26-2.97,62.63-14.32,87.37-36.86.72-.64,1.45-1.28,2.2-1.95,20.92-19.57,32.28-47.36,36.8-75.05.21-1.26.43-2.52.65-3.81,2.33-14.83,2.5-29.71,2.41-44.69,0-1.61,0-3.23-.01-4.84-.01-3.89-.03-7.77-.05-11.66h-6v-12h6V230.27h-6v-12h6q.52-38.25-5-76-.4-1.82-.8-3.67c-5.32-22.21-16.92-41.56-32.2-58.33q-.96-1.09-1.95-2.2c-19.57-20.92-47.36-32.28-75.05-36.8-1.26-.21-2.52-.43-3.81-.65-18.3-2.87-36.73-2.47-55.19-2.35v6h-12v-6c-49.13-.03-98.25-.07-147.38-.08-.73,0-1.46,0-2.21,0-15.83,0-31.66-.01-47.49-.02-7.76,0-15.53,0-23.29,0-.77,0-1.55,0-2.34,0-25,0-50-.02-74.99-.04-25.71-.02-51.42-.03-77.13-.04-3.64,0-7.28,0-10.92,0-.72,0-1.43,0-2.17,0-11.48,0-22.97-.01-34.45-.02-11.57-.01-23.14-.02-34.72-.01-6.26,0-12.52,0-18.78-.01-5.75,0-11.5-.01-17.24,0-2.06,0-4.12,0-6.19,0-20.33-.06-40.83.67-60.71,5.25Z"/>
  <path class="cls-6" d="M708.28,32.27h12v3q1.45-.02,2.93-.03,35.04-.35,48.06,1.72c2.18.33,4.37.6,6.56.86,30.27,3.86,56.38,17.69,78.45,38.45.59.53,1.18,1.05,1.79,1.59,23.7,22.01,34.8,55.48,37.84,86.78.07.67.13,1.35.2,2.04,1.64,17.17,1.47,34.35,1.17,51.58h3v376h4v208h-4v812h-3q.02,1.72.03,3.48c.04,4.35.06,8.7.08,13.05,0,1.87.02,3.73.04,5.6.11,12.46-.5,24.53-2.15,36.88-.2,1.73-.4,3.45-.61,5.18-4.01,30.02-17.79,55.91-38.39,77.82-.53.59-1.05,1.18-1.59,1.79-24.89,26.8-64.05,37.64-99.41,39.21-7.11.18-14.23.13-21.34.12-2.16,0-4.32,0-6.48,0-5.91,0-11.82,0-17.73,0-6.38,0-12.77,0-19.15,0-11.05,0-22.1,0-33.15,0-11.59,0-23.17,0-34.76-.01q-1.08,0-2.19,0c-3.66,0-7.33,0-10.99,0-25.93,0-51.85,0-77.78-.02-25.18,0-50.36-.02-75.54-.02-.78,0-1.55,0-2.35,0-7.8,0-15.6,0-23.4,0-15.89,0-31.78,0-47.67,0-.73,0-1.46,0-2.21,0-48.75,0-97.5-.03-146.25-.04v3h-12v-3c-.86.02-1.72.03-2.61.05q-55.17.86-80.39-7.05c-.64-.2-1.27-.4-1.93-.6-21.11-6.8-38.98-18.27-55.07-33.4-.59-.53-1.18-1.05-1.79-1.59-26.37-24.49-37.37-62.95-39.06-97.78-.46-14.19-.23-28.43-.15-42.63h-3v-812h-4v-128h4v-44h-4v-128h4v-64h-6v-64h6v-156h3q-.02-1.38-.05-2.8-.84-57.07,7.05-82.2c.2-.64.4-1.27.6-1.93,6.8-21.11,18.27-38.98,33.4-55.07.53-.59,1.05-1.18,1.59-1.79,27.29-29.38,66.55-36.07,104.41-39.21.75-.08,1.5-.16,2.28-.25,10.14-1.01,20.27-.89,30.45-.87,2.11,0,4.21,0,6.32,0,5.76,0,11.53,0,17.29,0,6.22,0,12.45,0,18.67,0,10.78,0,21.56,0,32.33,0,11.3,0,22.6,0,33.9.01.7,0,1.41,0,2.13,0,3.57,0,7.15,0,10.72,0,25.28,0,50.57,0,75.85.02,24.56,0,49.11.02,73.67.02.76,0,1.51,0,2.3,0,7.61,0,15.21,0,22.82,0,15.49,0,30.99,0,46.48,0q1.07,0,2.16,0c47.54,0,95.08.03,142.63.04v-2ZM148.28,43.27q-1.82.4-3.67.8c-22.21,5.32-41.56,16.92-58.33,32.2-.72.64-1.45,1.28-2.2,1.95-24.81,23.2-36.18,57.06-38.8,90.05-.09,1.07-.18,2.14-.27,3.25-.76,10.08-.85,20.09-.79,30.19,0,1.62,0,3.24.01,4.85.01,3.9.03,7.81.05,11.71h6v12h-6v1372h6v12h-6c-.57,50.55,2.37,98.91,38,138,.64.72,1.28,1.45,1.95,2.2,23.2,24.81,57.07,36.18,90.05,38.8,1.08.09,2.17.18,3.28.27,9.74.73,19.4.85,29.16.79,1.52,0,3.04,0,4.56-.01,3.67-.01,7.33-.03,11-.05v-5c-.59-.02-1.17-.03-1.77-.05-6.23-.18-12.46-.37-18.7-.59-2.31-.08-4.62-.15-6.93-.21-40.42-1.13-79.7-9.72-108.77-40.09-19.76-22.33-34.36-51.68-33.83-82.07.13.64.25,1.29.38,1.95,7,35.6,19.55,69.4,50.62,90.99q1.11.77,2.25,1.57c27.1,18.53,57.14,23.81,89.52,25.05q1.63.06,3.29.13c10.87.39,21.72.46,32.59.44,2.16,0,4.31,0,6.47,0,5.85,0,11.69,0,17.54,0,6.34,0,12.67,0,19.01,0,11.67,0,23.34,0,35.01,0,10.78,0,21.57,0,32.35,0q1.08,0,2.18,0c2.92,0,5.83,0,8.75,0,27.3,0,54.6,0,81.9,0,24.2,0,48.4,0,72.6,0,27.25,0,54.51,0,81.76,0,2.91,0,5.82,0,8.73,0q1.07,0,2.17,0c10.77,0,21.54,0,32.31,0,12.26,0,24.52,0,36.78,0,6.25,0,12.49,0,18.74,0,5.73,0,11.47,0,17.2,0,2.06,0,4.11,0,6.17,0,19.32.02,38.83-.06,58.04-2.38q1.6-.19,3.23-.38c12.92-1.65,25.1-5.19,37.39-9.37-1.7,3.4-5.32,3.81-8.76,5.01-5.38,1.65-10.83,2.68-16.36,3.68-1.12.21-2.23.42-3.38.64-9.56,1.78-18.98,2.8-28.69,3.22-.96.04-1.91.08-2.9.13-10.25.42-20.5.47-30.76.48-2.11,0-4.21,0-6.32.02-5.72.01-11.44.02-17.16.03-6.19,0-12.39.02-18.58.03-10.71.02-21.42.04-32.12.06-11.22.02-22.44.04-33.66.06-.7,0-1.4,0-2.12,0l-10.67.02c-25.12.05-50.24.09-75.37.13-24.39.04-48.78.08-73.18.12-.75,0-1.51,0-2.28,0-7.56.01-15.13.03-22.69.04-15.41.03-30.81.06-46.22.08-.71,0-1.42,0-2.15,0-47.21.08-94.43.16-141.64.24v6c48.76.03,97.52.07,146.28.08q1.08,0,2.19,0c15.71,0,31.42.01,47.13.02,7.71,0,15.41,0,23.12,0,.77,0,1.53,0,2.32,0,24.81,0,49.62.02,74.43.04,25.52.02,51.03.03,76.55.04,3.61,0,7.22,0,10.83,0,.71,0,1.42,0,2.15,0,11.4,0,22.8.01,34.2.02,11.48.01,22.97.02,34.45.01,6.21,0,12.42,0,18.64.01,5.7,0,11.41.01,17.11,0,2.05,0,4.1,0,6.14,0,10.76.03,21.43-.27,32.16-1.15.96-.08,1.93-.16,2.92-.24,33.26-2.97,62.63-14.32,87.37-36.86.72-.64,1.45-1.28,2.2-1.95,20.92-19.57,32.28-47.36,36.8-75.05.21-1.26.43-2.52.65-3.81,2.33-14.83,2.5-29.71,2.41-44.69,0-1.61,0-3.23-.01-4.84-.01-3.89-.03-7.77-.05-11.66h-6v-12h6V230.27h-6v-12h6q.52-38.25-5-76-.4-1.82-.8-3.67c-5.32-22.21-16.92-41.56-32.2-58.33q-.96-1.09-1.95-2.2c-19.57-20.92-47.36-32.28-75.05-36.8-1.26-.21-2.52-.43-3.81-.65-18.3-2.87-36.73-2.47-55.19-2.35v6h-12v-6c-49.13-.03-98.25-.07-147.38-.08-.73,0-1.46,0-2.21,0-15.83,0-31.66-.01-47.49-.02-7.76,0-15.53,0-23.29,0-.77,0-1.55,0-2.34,0-25,0-50-.02-74.99-.04-25.71-.02-51.42-.03-77.13-.04-3.64,0-7.28,0-10.92,0-.72,0-1.43,0-2.17,0-11.48,0-22.97-.01-34.45-.02-11.57-.01-23.14-.02-34.72-.01-6.26,0-12.52,0-18.78-.01-5.75,0-11.5-.01-17.24,0-2.06,0-4.12,0-6.19,0-20.33-.06-40.83.67-60.71,5.25Z"/>
  <path class="cls-13" d="M720.28,38.27c48.62-.68,94.69,4,132,38,.72.64,1.45,1.28,2.2,1.95,24.81,23.2,36.18,57.06,38.8,90.05q.13,1.61.27,3.25c.76,10.08.85,20.09.79,30.19,0,1.62,0,3.24-.01,4.85-.01,3.9-.03,7.81-.05,11.71h-6v12h6v1372h-6v12h6c.57,50.55-2.37,98.91-38,138-.64.72-1.28,1.45-1.95,2.2-19.57,20.92-47.36,32.28-75.05,36.8-1.26.21-2.52.43-3.81.65-15.81,2.48-31.7,2.5-47.66,2.47-2.14,0-4.28,0-6.41,0-5.84,0-11.67,0-17.51,0-6.31,0-12.62,0-18.92,0-10.92,0-21.83,0-32.75,0-11.44,0-22.88,0-34.32-.01q-1.07,0-2.16,0c-3.62,0-7.24,0-10.86,0-25.61,0-51.22,0-76.82-.02-24.87,0-49.74-.02-74.61-.02-.77,0-1.53,0-2.33,0-7.71,0-15.41,0-23.12,0-15.7,0-31.39,0-47.09,0-.72,0-1.44,0-2.19,0-48.14,0-96.29-.03-144.43-.04v-6q1.59,0,3.22,0c46.86-.08,93.71-.15,140.57-.24.71,0,1.42,0,2.15,0,15.44-.03,30.88-.06,46.32-.08,7.57-.01,15.14-.03,22.72-.04.75,0,1.51,0,2.28,0,24.39-.04,48.78-.09,73.16-.12,25.08-.04,50.16-.08,75.24-.13,3.55,0,7.1-.01,10.65-.02q1.05,0,2.12,0c11.21-.02,22.41-.04,33.62-.06,11.29-.02,22.58-.04,33.86-.06,6.11-.01,12.21-.02,18.32-.03,5.61,0,11.21-.02,16.82-.03,2.01,0,4.03,0,6.04,0,10.21,0,20.4-.15,30.61-.58.87-.04,1.75-.07,2.65-.11,17.9-.85,37.04-3.5,53.66-10.46.33-.66.66-1.32,1-2-.66-.33-1.32-.66-2-1,1.96-.84,3.92-1.67,5.88-2.5q1.64-.7,3.3-1.41,2.82-1.09,4.82-1.09v-2c1.46-.84,2.91-1.67,4.38-2.5q1.22-.7,2.46-1.41,2.16-1.09,4.16-1.09v-2h3v-2h3v-2q1.58-1.3,3.81-2.88c23.78-18.16,36.04-47.32,41.44-76,2.4-18.17,3.04-36.24,3-54.55,0-2.49,0-4.99,0-7.48,0-5.4,0-10.8,0-16.2,0-8.08,0-16.17,0-24.25,0-13.78,0-27.56,0-41.35,0-13.96,0-27.91,0-41.87,0-.88,0-1.77,0-2.68,0-3.6,0-7.2,0-10.79.01-33.47.01-66.94,0-100.42q0-1.49,0-3c0-.99,0-1.98,0-3.01,0-30.26,0-60.52,0-90.78,0-2.03,0-4.06,0-6.08,0-8.15,0-16.3,0-24.45,0-22.78,0-45.57,0-68.35q0-1.56,0-3.14c0-33.05,0-66.1,0-99.15,0-1.07,0-2.14,0-3.25,0-17.4,0-34.81,0-52.21,0-68.99,0-137.97,0-206.96,0-17.38,0-34.76,0-52.14,0-1.07,0-2.14,0-3.24,0-33.01,0-66.01,0-99.02,0-1.04,0-2.07,0-3.14,0-22.77,0-45.53,0-68.3,0-8.15,0-16.29,0-24.44,0-2.03,0-4.05,0-6.08,0-30.24,0-60.48,0-90.72,0-.99,0-1.98,0-3,0-.99,0-1.98,0-2.99,0-33.39,0-66.78,0-100.17,0-3.59,0-7.19,0-10.78,0-.88,0-1.76,0-2.67,0-13.91,0-27.81,0-41.72,0-13.71,0-27.41,0-41.12,0-7.32,0-14.64,0-21.96q.12-35.54-1.14-71.05c-.04-.68-.08-1.37-.11-2.07-1.98-34.24-13.46-63.54-37.01-88.55q-.81-.9-1.63-1.83c-22.77-24.48-58.01-32.8-89.99-34.86-1.65-.12-3.3-.23-4.95-.35-10.47-.75-20.95-1.36-31.43-1.96v-6Z"/>
  <path class="cls-21" d="M210.78,38.15c2.15,0,4.31,0,6.46,0,5.88,0,11.77,0,17.65,0,6.36,0,12.72,0,19.07,0,11,0,22.01,0,33.01,0,11.53,0,23.07,0,34.6.01.72,0,1.44,0,2.18,0,3.65,0,7.3,0,10.95,0,25.81,0,51.63,0,77.44.02,25.07,0,50.14.02,75.21.02.77,0,1.55,0,2.34,0,7.77,0,15.54,0,23.3,0,15.82,0,31.64,0,47.47,0,.73,0,1.45,0,2.2,0,48.53,0,97.07.03,145.6.04v6q-1.57,0-3.17,0c-46.14.08-92.27.15-138.41.24-.7,0-1.4,0-2.12,0-15.21.03-30.42.06-45.63.08-7.46.01-14.92.03-22.38.04-.74,0-1.48,0-2.25,0-24.01.04-48.03.09-72.04.12-24.7.04-49.4.08-74.1.13-3.5,0-7,.01-10.49.02-.69,0-1.38,0-2.09,0-11.03.02-22.06.04-33.09.06-11.12.02-22.24.04-33.36.06-6.01.01-12.02.02-18.04.03q-43.52-.44-86.83,3.2c-.7.1-1.39.19-2.11.29-27.94,3.91-52.79,15.85-72.89,35.71-.85.83-1.71,1.66-2.59,2.52-31.37,32.31-34.93,78.86-34.78,121.54,0,2.5,0,5-.01,7.5,0,5.4,0,10.8,0,16.2.01,8.08.01,16.16,0,24.25-.01,13.78,0,27.57,0,41.35.01,13.95.02,27.9.01,41.85,0,.88,0,1.77,0,2.68,0,4.51,0,9.02,0,13.52,0,32.57,0,65.13.01,97.7.01,32.26.02,64.51.02,96.77,0,2.03,0,4.06,0,6.08,0,8.15,0,16.3,0,24.45,0,22.78,0,45.57,0,68.35,0,1.04,0,2.07,0,3.14,0,50.43.02,100.86.04,151.29.02,70.07.04,140.14.04,210.21,0,2.18,0,4.36,0,6.54,0,7.62,0,15.23,0,22.85,0,6.51,0,13.01,0,19.52,0,3.24,0,6.49,0,9.73,0,67.93.01,135.86.03,203.78,0,21.18,0,42.36,0,63.54,0,42.42.01,84.84.03,127.26,0,3.59,0,7.18,0,10.77,0,.88,0,1.76,0,2.67,0,13.91,0,27.82,0,41.72,0,13.7,0,27.4.01,41.11,0,7.32,0,14.64,0,21.95q-.06,40.58,1.14,81.14h-1c-.19,6.09.45,11.6,1.69,17.56.18.88.36,1.75.55,2.66,6.88,32.14,25.2,60.96,52.82,79.11,28.07,17.88,58.16,22.01,90.94,22.92,2.35.08,4.7.15,7.04.23,5.65.19,11.3.36,16.96.52v5q-49.71.6-74-5c-1.21-.26-2.42-.53-3.67-.8-22.21-5.32-41.56-16.92-58.33-32.2-.72-.64-1.45-1.28-2.2-1.95-20.92-19.57-32.28-47.36-36.8-75.05-.21-1.26-.43-2.52-.65-3.81-2.33-14.83-2.5-29.71-2.41-44.69,0-1.61,0-3.23.01-4.84.01-3.89.03-7.77.05-11.66h6v-12h-6V230.27h6v-12h-6q-.58-51.78,5-76,.4-1.82.8-3.67c5.32-22.21,16.92-41.56,32.2-58.33.64-.72,1.28-1.45,1.95-2.2,23.23-24.83,57.05-36.13,90.05-38.8.99-.08,1.98-.17,2.99-.25,11.18-.85,22.31-.88,33.51-.87Z"/>
  <path class="cls-40" d="M44.28,230.27h5v1372h-5V230.27Z"/>
  <path class="cls-15" d="M38.28,230.27h3v1372h-3v-800h-4v-128h4v-44h-4v-128h4v-64h-6v-64h6v-144Z"/>
  <path class="cls-33" d="M890.28,230.27h4v1372h-4V230.27Z"/>
  <path class="cls-36" d="M897.28,230.27h3v364h4v208h-4v800h-3V230.27Z"/>
  <path class="cls-24" d="M210.78,38.15c2.15,0,4.31,0,6.46,0,5.88,0,11.77,0,17.65,0,6.36,0,12.72,0,19.07,0,11,0,22.01,0,33.01,0,11.53,0,23.07,0,34.6.01.72,0,1.44,0,2.18,0,3.65,0,7.3,0,10.95,0,25.81,0,51.63,0,77.44.02,25.07,0,50.14.02,75.21.02.77,0,1.55,0,2.34,0,7.77,0,15.54,0,23.3,0,15.82,0,31.64,0,47.47,0,.73,0,1.45,0,2.2,0,48.53,0,97.07.03,145.6.04v5c-1.1,0-2.21,0-3.35,0-48.69.04-97.39.09-146.08.16q-1.11,0-2.24,0c-16.05.02-32.09.04-48.14.07-7.87.01-15.74.02-23.61.03-.78,0-1.57,0-2.37,0-25.34.04-50.69.06-76.03.08-26.06.02-52.13.05-78.19.1-3.69,0-7.38.01-11.07.02q-1.09,0-2.2,0c-11.64.02-23.29.03-34.93.03-11.73,0-23.46.02-35.19.05-6.35.01-12.69.02-19.04.02-5.83,0-11.65,0-17.48.03-2.09,0-4.18,0-6.28,0-42.71-.1-83.54,8.63-114.81,39.41-30.86,30.81-36.71,73.09-37.56,114.69-.04,1.97-.09,3.95-.13,5.92-.11,4.8-.21,9.59-.31,14.39h-5q-.58-51.78,5-76,.4-1.82.8-3.67c5.32-22.21,16.92-41.56,32.2-58.33.64-.72,1.28-1.45,1.95-2.2,23.23-24.83,57.05-36.13,90.05-38.8.99-.08,1.98-.17,2.99-.25,11.18-.85,22.31-.88,33.51-.87Z"/>
  <path class="cls-24" d="M889.28,1614.27h5c.57,50.55-2.37,98.91-38,138-.64.72-1.28,1.45-1.95,2.2-19.57,20.92-47.36,32.28-75.05,36.8-1.26.21-2.52.43-3.81.65-15.81,2.48-31.7,2.5-47.66,2.47-2.14,0-4.28,0-6.41,0-5.84,0-11.67,0-17.51,0-6.31,0-12.62,0-18.92,0-10.92,0-21.83,0-32.75,0-11.44,0-22.88,0-34.32-.01q-1.07,0-2.16,0c-3.62,0-7.24,0-10.86,0-25.61,0-51.22,0-76.82-.02-24.87,0-49.74-.02-74.61-.02-.77,0-1.53,0-2.33,0-7.71,0-15.41,0-23.12,0-15.7,0-31.39,0-47.09,0-.72,0-1.44,0-2.19,0-48.14,0-96.29-.03-144.43-.04v-5c1.08,0,2.16,0,3.28,0,47.75-.06,95.5-.12,143.24-.2q1.09,0,2.19,0c15.74-.02,31.48-.05,47.21-.08,7.72-.01,15.44-.02,23.16-.04.77,0,1.54,0,2.33,0,24.85-.04,49.7-.07,74.56-.1,25.56-.03,51.12-.07,76.68-.11,3.62,0,7.24-.01,10.85-.02.71,0,1.42,0,2.16,0,11.42-.02,22.83-.03,34.25-.04,11.5-.01,23.01-.03,34.51-.05,6.22-.01,12.45-.02,18.67-.03,5.71,0,11.43-.01,17.14-.03,2.05,0,4.1,0,6.15,0,10.96,0,21.84-.32,32.77-1.16q1.51-.11,3.04-.23c16.26-1.37,32-5,46.8-11.9,1.17-.52,2.33-1.05,3.53-1.59,28.94-13.64,50.79-38.44,62.13-68.26,2.16-6.09,3.74-12.29,5.15-18.59.2-.87.39-1.74.59-2.63,3.41-16.53,3.94-33.3,4.22-50.12.04-1.94.08-3.87.12-5.81.09-4.67.18-9.33.26-14Z"/>
  <path class="cls-26" d="M897.28,1614.27h3c.89,52.74-3,102.77-41,143q-1.03,1.13-2.08,2.27c-28.24,29.81-70.02,39.41-109.56,40.82-14.86.39-29.72.29-44.58.25-6.31-.01-12.62,0-18.93,0-10.9,0-21.79,0-32.69-.02-11.41-.02-22.82-.03-34.23-.03-.71,0-1.43,0-2.16,0-3.62,0-7.25,0-10.87,0-25.57,0-51.13-.03-76.7-.05-24.82-.03-49.63-.05-74.45-.06q-1.15,0-2.32,0c-7.7,0-15.4,0-23.11-.01-15.69,0-31.37-.02-47.06-.03-.72,0-1.44,0-2.18,0-48.03-.03-96.06-.08-144.08-.13v-3c1.1,0,2.19,0,3.32,0,48.31-.06,96.62-.12,144.93-.2.73,0,1.46,0,2.22,0,15.91-.02,31.82-.05,47.73-.08,7.8-.01,15.61-.02,23.41-.04.78,0,1.55,0,2.35,0,25.14-.04,50.29-.07,75.43-.1,25.85-.03,51.7-.07,77.55-.11,3.66,0,7.31-.01,10.97-.02.72,0,1.44,0,2.18,0,11.56-.02,23.11-.03,34.67-.04,11.63-.01,23.27-.03,34.9-.05,6.3-.01,12.59-.02,18.89-.03,5.77,0,11.55-.01,17.32-.03,2.08,0,4.16,0,6.24,0,12.45.01,24.55-.65,36.9-2.28,1.73-.2,3.45-.41,5.18-.61,24.66-3.29,48.78-13.23,67.82-29.39.85-.72,1.71-1.43,2.59-2.17,29.62-25.74,43.62-61.23,46.98-99.73.66-9.45.79-18.93.99-28.41.04-1.92.09-3.83.13-5.75.11-4.65.21-9.29.31-13.94Z"/>
  <path class="cls-35" d="M210.91,32.03c2.17,0,4.33,0,6.5,0,5.87,0,11.75,0,17.62.01,6.36,0,12.73,0,19.09,0,11,0,22,0,33,.02,11.52.01,23.05.02,34.57.02.72,0,1.44,0,2.18,0,3.65,0,7.31,0,10.96,0,25.81,0,51.62.02,77.43.04,25.06.02,50.11.03,75.17.04.77,0,1.55,0,2.34,0,7.77,0,15.54,0,23.31,0,15.83,0,31.65.01,47.48.02.73,0,1.46,0,2.2,0,48.5.02,97,.05,145.5.08v2c-1.06,0-2.12,0-3.22,0-46.88.04-93.76.09-140.64.16-.71,0-1.42,0-2.16,0-15.47.02-30.94.04-46.4.07-7.59.01-15.17.02-22.76.03-.75,0-1.51,0-2.29,0-24.4.04-48.8.06-73.2.08-25.11.02-50.22.05-75.32.1-3.56,0-7.12.01-10.68.02-.7,0-1.4,0-2.12,0-11.2.02-22.41.03-33.61.03-11.31,0-22.61.02-33.92.05-6.11.01-12.22.02-18.33.02-25.96-.01-51.56.46-77.36,3.43-1.03.12-2.07.23-3.13.35-34.55,3.89-67.41,20.73-89.55,47.88-17.92,22.86-27.19,49.48-29.88,78.14-.06.67-.13,1.35-.2,2.04-1.61,17.16-1.97,34.36-2.24,51.58h-3c-.89-52.74,3-102.77,41-143,.69-.75,1.37-1.5,2.08-2.27,18.39-19.41,44.3-31.15,70.11-36.54.92-.2,1.83-.39,2.78-.59,18.62-3.57,37.76-3.89,56.66-3.84Z"/>
  <path class="cls-24" d="M44.28,1614.27h5c.33,13.53.66,27.06,1,41,.33-6.6.66-13.2,1-20h1c.33,10.23.66,20.46,1,31h-1c-.19,6.09.45,11.6,1.69,17.56.18.88.36,1.75.55,2.66,6.88,32.14,25.2,60.96,52.82,79.11,28.07,17.88,58.16,22.01,90.94,22.92,2.35.08,4.7.15,7.04.23,5.65.19,11.3.36,16.96.52v5q-49.71.6-74-5-1.82-.4-3.67-.8c-22.21-5.32-41.56-16.92-58.33-32.2-.72-.64-1.45-1.28-2.2-1.95-20.92-19.57-32.28-47.36-36.8-75.05-.21-1.26-.43-2.52-.65-3.81-2.33-14.83-2.5-29.71-2.41-44.69,0-1.61,0-3.23.01-4.84.01-3.89.03-7.77.05-11.66Z"/>
  <path class="cls-24" d="M720.28,38.27c48.62-.68,94.69,4,132,38q1.09.96,2.2,1.95c24.81,23.2,36.18,57.06,38.8,90.05.09,1.07.18,2.14.27,3.25.76,10.08.85,20.09.79,30.19,0,1.62,0,3.24-.01,4.85-.01,3.9-.03,7.81-.05,11.71h-5c-.03-1.04-.05-2.07-.08-3.14-.1-3.93-.2-7.86-.3-11.79-.04-1.69-.08-3.37-.12-5.06q-.47-22.36-3.25-44.52-.26-1.47-.53-2.96c-4.84-25.87-16.07-48.13-33.72-67.54-.58-.66-1.16-1.33-1.76-2.01-18.75-20.25-47.6-31.01-74.24-34.99-.71-.11-1.41-.22-2.14-.33-17.42-2.61-35.28-2.31-52.86-2.67v-5Z"/>
  <path class="cls-18" d="M38.28,1614.27h3c.03.97.05,1.93.08,2.93.26,10.03.55,20.06.86,30.09.05,1.67.1,3.34.14,5,.94,33.81,9.65,67.74,31.92,93.98q1.08,1.28,2.17,2.59c24.42,28.1,57.7,42.55,94.33,45.97.68.06,1.36.13,2.05.2,16.45,1.54,32.93,1.96,49.45,2.24v3c-52.06.94-101.38-3.57-141-41-.75-.69-1.5-1.37-2.27-2.08-18.58-17.6-30.05-42.32-35.73-66.92-.28-1.19-.55-2.39-.84-3.62-4.98-23.8-4.43-48.2-4.16-72.38Z"/>
  <path class="cls-12" d="M720.28,32.27c50.72-1.07,98.62,4.75,137,41,.75.69,1.5,1.37,2.27,2.08,25.34,24.01,36.67,59,39.73,92.92.09.97.18,1.93.27,2.93.82,9.99.85,19.93.79,29.94,0,1.67,0,3.34-.01,5.01-.01,4.04-.03,8.08-.05,12.11h-3q-.02-1.38-.04-2.8-.13-41.61-7.96-82.2c-.2-.64-.4-1.27-.6-1.93-5.25-16.31-13.37-31.94-24.4-45.07-.72-.86-1.44-1.71-2.18-2.6-26.58-30.55-63.46-44.43-103.19-47.21-7.31-.4-14.63-.58-21.94-.76-1.63-.04-3.25-.09-4.88-.13-3.94-.11-7.87-.21-11.81-.31v-3Z"/>
  <path class="cls-27" d="M859.28,1739.27c-7.81,18.42-33.01,32.01-50.5,39.25-14.61,5.74-29.71,8.68-45.33,9.87-1.08.08-2.17.17-3.28.25-10.84.78-21.63.9-32.49.87-2.15,0-4.3,0-6.45,0-5.83,0-11.65,0-17.48-.01-6.31,0-12.63,0-18.94,0-10.91,0-21.82,0-32.74-.02-11.43-.01-22.86-.02-34.29-.02-.71,0-1.43,0-2.16,0-3.62,0-7.25,0-10.87,0-25.6,0-51.21-.02-76.81-.04-24.86-.02-49.71-.03-74.57-.04q-1.15,0-2.33,0c-7.71,0-15.42,0-23.13,0-15.7,0-31.4-.01-47.11-.02-.72,0-1.44,0-2.19,0-48.11-.02-96.22-.05-144.34-.08v-1q1.59,0,3.22,0c46.86-.08,93.71-.15,140.57-.24.71,0,1.42,0,2.15,0,15.44-.03,30.88-.06,46.32-.08,7.57-.01,15.14-.03,22.72-.04q1.13,0,2.28,0c24.39-.04,48.78-.09,73.16-.12,25.08-.04,50.16-.08,75.24-.13,3.55,0,7.1-.01,10.65-.02.7,0,1.4,0,2.12,0,11.21-.02,22.41-.04,33.62-.06,11.29-.02,22.58-.04,33.86-.06,6.11-.01,12.21-.02,18.32-.03,5.61,0,11.21-.02,16.82-.03,2.01,0,4.03,0,6.04,0,10.21,0,20.4-.15,30.61-.58.87-.04,1.75-.07,2.65-.11,17.9-.85,37.04-3.5,53.66-10.46.33-.66.66-1.32,1-2-.66-.33-1.32-.66-2-1,1.96-.84,3.92-1.67,5.88-2.5,1.09-.46,2.18-.93,3.3-1.41q2.82-1.09,4.82-1.09v-2c1.46-.84,2.91-1.67,4.38-2.5.81-.46,1.62-.93,2.46-1.41q2.16-1.09,4.16-1.09v-2h3v-2h3v-2q1.62-1.41,3.88-3.06c4.62-3.47,8.84-7.26,13.06-11.21q2.07-1.72,4.07-1.72Z"/>
  <path class="cls-23" d="M51.28,1664.27c2.39,2.39,2.5,3.6,3.11,6.88.19.99.39,1.99.59,3.01.2,1.07.41,2.13.61,3.23,6.55,32.6,21.29,63.17,49.63,82.36,28.14,18.35,58.01,23.89,91.24,25.07,1.14.04,2.29.09,3.46.13,2.78.1,5.57.21,8.35.31v1q-2.48.5-5,1c6.27.33,12.54.66,19,1v1c-50.02.3-96.75-2.2-135-38.69-20.22-20.99-36.47-51.93-36.06-81.75,0-.86.02-1.73.03-2.62.01-.64.02-1.28.04-1.94Z"/>
  <path class="cls-39" d="M386.28,46.27h167v4c-2.83,1.42-5.2,1.13-8.37,1.14q-.99,0-2,0c-2.23,0-4.45.01-6.68.01-1.59,0-3.18,0-4.77.02-4.33.01-8.66.02-12.99.02-2.7,0-5.41,0-8.11.01-8.45.01-16.9.02-25.36.03-9.77,0-19.54.02-29.3.05-7.54.02-15.09.03-22.63.03-4.51,0-9.02,0-13.53.02-4.24.02-8.48.02-12.72,0-1.56,0-3.12,0-4.67.01-2.12.01-4.25,0-6.37,0-1.19,0-2.38,0-3.6,0q-2.89-.37-4.8-1.77-1.09-1.6-1.09-3.6Z"/>
  <path class="cls-14" d="M35.28,675.27h3l-.88,6.15c-.04.61-.08,1.22-.12,1.85.33.33.66.66,1,1,.1,1.34.12,2.69.12,4.03,0,.87,0,1.74,0,2.63,0,.96,0,1.92-.01,2.91,0,1,0,2.01,0,3.04,0,3.34,0,6.68-.02,10.02,0,2.31,0,4.62,0,6.92,0,6.09-.01,12.18-.02,18.26-.01,6.21-.01,12.41-.02,18.62-.01,12.19-.03,24.38-.05,36.56q-1.49.5-3,1v11h3v2c-1.32-.33-2.64-.66-4-1-.02-16.15-.04-32.3-.05-48.45,0-7.5-.01-15-.02-22.5,0-6.53-.02-13.07-.02-19.6,0-3.46,0-6.92-.01-10.38,0-3.86,0-7.72,0-11.57,0-1.16,0-2.31-.01-3.5,0-1.04,0-2.09,0-3.17,0-.91,0-1.83,0-2.77q.12-2.06,1.12-3.06Z"/>
  <path class="cls-14" d="M35.28,503.27h3l-.88,6.15c-.04.61-.08,1.22-.12,1.85.33.33.66.66,1,1,.1,1.34.12,2.69.12,4.03,0,.87,0,1.74,0,2.63,0,.96,0,1.92-.01,2.91,0,1,0,2.01,0,3.04,0,3.34,0,6.68-.02,10.02,0,2.31,0,4.62,0,6.92,0,6.09-.01,12.18-.02,18.26-.01,6.21-.01,12.41-.02,18.62-.01,12.19-.03,24.38-.05,36.56q-1.49.5-3,1v11h3v2c-1.32-.33-2.64-.66-4-1-.02-16.15-.04-32.3-.05-48.45,0-7.5-.01-15-.02-22.5,0-6.53-.02-13.07-.02-19.6,0-3.46,0-6.92-.01-10.38,0-3.86,0-7.72,0-11.57,0-1.16,0-2.31-.01-3.5,0-1.04,0-2.09,0-3.17,0-.91,0-1.83,0-2.77q.12-2.06,1.12-3.06Z"/>
  <path class="cls-9" d="M563.59,119.02c2.6,2.18,3.5,3.18,4.69,6.25.32,4.64-.42,8.13-3,12-3.96,2.64-7.25,3.43-12,3-3.58-1.69-5.39-2.95-7.38-6.38-1.13-4.75-1.23-7.49,1.12-11.88,4.59-5.61,10.02-6.46,16.56-3Z"/>
  <path class="cls-10" d="M33.28,375.27h5v53q-1.48.49-3,1c-.33,1.98-.66,3.96-1,6h4v2c-1.67.04-3.33.04-5,0-1.76-1.76-1.13-4.22-1.13-6.61,0-1.2,0-2.4,0-3.63,0-1.3,0-2.61,0-3.95,0-1.34,0-2.68,0-4.02,0-2.81,0-5.63,0-8.44,0-3.62,0-7.23,0-10.85,0-2.77,0-5.54,0-8.31,0-1.98,0-3.97,0-5.95,0-1.2,0-2.4,0-3.63,0-1.06,0-2.12,0-3.21q.13-2.39,1.13-3.39Z"/>
  <path class="cls-3" d="M51.28,1664.27c2.39,2.39,2.5,3.6,3.11,6.88.19.99.39,1.99.59,3.01.2,1.07.41,2.13.61,3.23,5.66,28.16,16.72,49.66,35.73,71.18q3.96,4.51,3.96,6.69,1.42,1.32,3.28,2.6c.68.49,1.35.98,2.05,1.48q1.07.76,2.17,1.54t2.17,1.56c1.77,1.28,3.55,2.55,5.33,3.81-4.1,0-6.37-2.05-9.56-4.38-.63-.45-1.25-.91-1.9-1.37-26.59-19.69-41.87-50.85-47.14-82.91-.35-2.97-.5-5.79-.46-8.78,0-.86.02-1.73.03-2.62.01-.64.02-1.28.04-1.94Z"/>
  <path class="cls-38" d="M486.28,46.27h67v4c-8,.09-15.99.16-23.99.21-3.71.02-7.43.05-11.14.09-3.59.04-7.17.07-10.76.08-1.37,0-2.73.02-4.1.04-1.92.03-3.83.03-5.75.03q-1.64.01-3.3.03-2.96-.48-7.96-4.48Z"/>
  <path class="cls-32" d="M809.28,1774.27q-1,3-3.04,4.07c-7.27,2.55-14.51,4.24-22.08,5.61-1.12.21-2.23.42-3.38.64-16.98,3.17-33.34,2.85-50.5,1.67v-1c.62-.01,1.24-.03,1.88-.04,24.29-.63,48.33-2.1,71.45-10.11q2.67-.85,5.67-.85Z"/>
  <path class="cls-30" d="M859.28,1739.27c-1.65,3.98-4.38,6.93-7.25,10.06-.47.53-.93,1.06-1.41,1.6-3.16,3.47-6.05,5.33-10.34,7.33-2.2,1.56-4.35,3.13-6.5,4.75-6.71,4.93-13.72,9.21-21.5,12.25-.66-.33-1.32-.66-2-1,3.51-3.1,6.49-4.74,11-6v-2c1.46-.84,2.91-1.67,4.38-2.5.81-.46,1.62-.93,2.46-1.41q2.16-1.09,4.16-1.09v-2h3v-2h3v-2q1.62-1.41,3.88-3.06c4.62-3.47,8.84-7.26,13.06-11.21q2.07-1.72,4.07-1.72Z"/>
  <path class="cls-7" d="M386.28,46.27h53c-1.32.99-2.64,1.98-4,3-.99-.33-1.98-.66-3-1-.99.66-1.98,1.32-3,2q-1.96.24-4.2.23c-.84,0-1.68,0-2.55,0-.9-.01-1.81-.02-2.74-.03q-1.39,0-2.81,0c-2.97-.01-5.93-.04-8.89-.06-2.01-.01-4.02-.02-6.03-.03-4.93-.02-9.86-.06-14.78-.1l-1-4Z"/>
  <path class="cls-1" d="M35.84,375.21q1.21.03,2.44.06v9h-1c-.12-.8-.25-1.61-.38-2.44-.21-.85-.41-1.69-.62-2.56-.66-.33-1.32-.66-2-1v57h4v2c-1.67.04-3.33.04-5,0-1.76-1.76-1.13-4.22-1.13-6.61,0-1.2,0-2.4,0-3.63,0-1.3,0-2.61,0-3.95,0-1.34,0-2.68,0-4.02,0-2.81,0-5.63,0-8.44,0-3.62,0-7.23,0-10.85,0-2.77,0-5.54,0-8.31,0-1.98,0-3.97,0-5.95,0-1.2,0-2.4,0-3.63,0-1.06,0-2.12,0-3.21.18-3.33.34-3.37,3.69-3.45Z"/>
  <path class="cls-13" d="M51.28,1664.27c2.39,2.39,2.5,3.6,3.11,6.88.19,1,.39,1.99.59,3.02.2,1.06.4,2.13.61,3.23,2.14,10.81,4.6,21.41,8.82,31.62.98,2.55,1.02,4.54.86,7.25h-2c-6.25-15-12.29-30.93-12.06-47.44,0-.86.02-1.73.03-2.62.01-.64.02-1.28.04-1.94Z"/>
  <path class="cls-19" d="M554.28,120.27c4.19.24,6.37.41,9.5,3.31q1.5,2.69,1.25,5c-.25.56-.49,1.11-.75,1.69-.66-1.32-1.32-2.64-2-4q-1.49,2.48-3,5h2q-.88,4.88-2,6-2.94.25-6,0-2-3-1.62-5.19c.21-.6.41-1.2.62-1.81h6v-2c-1.65-.33-3.3-.66-5-1,.33-2.31.66-4.62,1-7Z"/>
  <path class="cls-37" d="M143.28,1779.27c6.33.66,12.59,1.52,18.88,2.5,7.03,1.08,14.03,2.03,21.12,2.5-.33.99-.66,1.98-1,3-13.34-.65-26.25-1.68-39-6v-2Z"/>
  <path class="cls-16" d="M35.84,375.21q1.21.03,2.44.06v9h-1c-.12-.8-.25-1.61-.38-2.44-.21-.85-.41-1.69-.62-2.56-.66-.33-1.32-.66-2-1v29h-1c-.64-7.96-1.1-15.89-1.12-23.88,0-.7,0-1.39-.01-2.11q.02-5.99,3.7-6.08Z"/>
  <path class="cls-25" d="M834.28,1762.27c-6.86,5.13-13.98,9.85-22,13l-2-1c3.51-3.1,6.49-4.74,11-6v-2c1.41-.87,2.83-1.72,4.25-2.56.79-.48,1.58-.95,2.39-1.44,2.67-1.13,3.7-1.01,6.36,0Z"/>
  <path class="cls-5" d="M552.28,130.27q6.75-.12,9,1-.88,4.88-2,6-2.94.25-6,0-2-3-1.62-5.19c.21-.6.41-1.2.62-1.81Z"/>
  <path class="cls-34" d="M51.28,1635.27h1c.33,10.23.66,20.46,1,31h-3c.33-10.23.66-20.46,1-31Z"/>
  <path class="cls-20" d="M554.28,121.27l3,1-3-1ZM553.28,122.27q1,2,1,5c1.32.33,2.64.66,4,1v2q-1.42.15-2.88.31-3.42.37-5.12,3.69-1-1-1.31-3.75c.38-3.93,1.65-5.42,4.31-8.25Z"/>
  <path class="cls-15" d="M53.28,159.27h1c-.14,2.52-.29,5.04-.44,7.56-.04.7-.08,1.41-.12,2.13-.27,4.48-.75,8.87-1.44,13.3h-1c-.22-2.79-.43-5.58-.62-8.38-.06-.79-.13-1.59-.2-2.41-.14-2.07-.17-4.15-.18-6.22.66-.66,1.32-1.32,2-2q.64-2.07,1-4Z"/>
  <path class="cls-8" d="M885.28,1655.27h1c.28,3.27.52,6.54.75,9.81.08.93.16,1.86.25,2.81q.09,1.34.18,2.71c.06.82.13,1.64.19,2.49q-.36,2.18-4.36,5.18c.66-7.59,1.32-15.18,2-23Z"/>
  <path class="cls-11" d="M822.28,1767.27v3c-1.62.86-3.25,1.72-4.88,2.56q-1.36.71-2.74,1.44c-.79.33-1.57.66-2.38,1l-2-1c3.81-3.35,7.33-5.17,12-7Z"/>
  <path class="cls-2" d="M36.28,427.27l2,1v7h-4q-.12-2.88,0-6l2-2Z"/>
  <path class="cls-4" d="M553.28,131.27h5c.33,1.32.66,2.64,1,4-1.65.33-3.3.66-5,1-.33-1.65-.66-3.3-1-5Z"/>
  <path class="cls-17" d="M900.28,597.27h3c.08,1.46.14,2.92.19,4.38.03.81.07,1.62.11,2.46-.1.71-.19,1.43-.29,2.16-.99.66-1.98,1.32-3,2v-11Z"/>
  <path class="cls-29" d="M432.28,47.27c.58.17,1.15.33,1.75.5q2.52.64,6.25.5c-.33.66-.66,1.32-1,2q-2.07.41-4.56.62c-.83.07-1.65.15-2.5.23q-.96.07-1.93.15l2-4Z"/>
  <path class="cls-28" d="M553.28,124.27h6c-.33,1.32-.66,2.64-1,4-1.65-.33-3.3-.66-5-1v-3Z"/>
  <path class="cls-31" d="M38.28,787.27q.19,2.88,0,6c-.99.66-1.98,1.32-3,2v-7q2-1,3-1Z"/>
  <path class="cls-31" d="M38.28,615.27q.19,2.88,0,6c-.99.66-1.98,1.32-3,2v-7q2-1,3-1Z"/>
  <path class="cls-22" d="M561.28,125.27l2,1v5h-4c.51-2.17,1-4,2-6Z"/>
</svg>